<svg width="37" height="37" viewBox="0 0 37 37" fill="none" xmlns="http://www.w3.org/2000/svg">
<path d="M29.2916 16.9583H12.0712L19.5945 9.435C20.1957 8.83375 20.1957 7.84708 19.5945 7.24583C19.4519 7.10292 19.2824 6.98953 19.0959 6.91217C18.9094 6.8348 18.7095 6.79498 18.5076 6.79498C18.3057 6.79498 18.1058 6.8348 17.9193 6.91217C17.7328 6.98953 17.5634 7.10292 17.4207 7.24583L7.26115 17.4054C7.11824 17.548 7.00485 17.7175 6.92749 17.904C6.85012 18.0905 6.8103 18.2904 6.8103 18.4923C6.8103 18.6942 6.85012 18.8941 6.92749 19.0806C7.00485 19.2671 7.11824 19.4365 7.26115 19.5792L17.4207 29.7387C17.5635 29.8815 17.7329 29.9947 17.9194 30.0719C18.1059 30.1492 18.3058 30.1889 18.5076 30.1889C18.7095 30.1889 18.9093 30.1492 19.0958 30.0719C19.2823 29.9947 19.4518 29.8815 19.5945 29.7387C19.7372 29.596 19.8504 29.4266 19.9277 29.2401C20.0049 29.0536 20.0447 28.8537 20.0447 28.6519C20.0447 28.45 20.0049 28.2501 19.9277 28.0637C19.8504 27.8772 19.7372 27.7077 19.5945 27.565L12.0712 20.0417H29.2916C30.1395 20.0417 30.8332 19.3479 30.8332 18.5C30.8332 17.6521 30.1395 16.9583 29.2916 16.9583Z" fill="#F55A00"/>
</svg>
