<svg width="23" height="30" viewBox="0 0 23 30" fill="none" xmlns="http://www.w3.org/2000/svg">
<path d="M22.2956 1.81549C22.5301 1.75883 22.733 1.61239 22.8606 1.40767C22.9882 1.20295 23.0304 0.956311 22.9781 0.720816C22.9257 0.485321 22.783 0.279788 22.5806 0.148433C22.3783 0.0170793 22.1325 -0.0295988 21.896 0.0184412L13.6105 1.85968C13.4434 1.89668 13.2899 1.9795 13.1673 2.09887C13.0447 2.21823 12.9578 2.3694 12.9163 2.53542L12.4008 4.59945H0.920621C0.676457 4.59945 0.442294 4.69645 0.269644 4.8691C0.0969939 5.04175 0 5.27591 0 5.52007V11.9644C0 13.1852 0.484969 14.3561 1.34822 15.2193C2.21147 16.0826 3.38229 16.5675 4.6031 16.5675H5.52373V17.4881C5.52331 18.7938 5.98542 20.0574 6.82807 21.0548C7.67071 22.0521 8.83942 22.7188 10.1268 22.9364V27.615H6.44435C6.20018 27.615 5.96602 27.712 5.79337 27.8846C5.62072 28.0573 5.52373 28.2914 5.52373 28.5356C5.52373 28.7798 5.62072 29.0139 5.79337 29.1866C5.96602 29.3592 6.20018 29.4562 6.44435 29.4562H15.6506C15.8947 29.4562 16.1289 29.3592 16.3015 29.1866C16.4742 29.0139 16.5712 28.7798 16.5712 28.5356C16.5712 28.2914 16.4742 28.0573 16.3015 27.8846C16.1289 27.712 15.8947 27.615 15.6506 27.615H11.9681V22.9382C13.2558 22.7206 14.4247 22.0537 15.2674 21.0559C16.1101 20.0582 16.572 18.7941 16.5712 17.4881V16.5675H17.4918C18.7126 16.5675 19.9806 15.9854 20.7467 15.2193C21.6099 14.3561 22.0949 13.1852 22.0949 11.9644V5.52007C22.0949 5.27591 21.9979 5.04175 21.8253 4.8691C21.6526 4.69645 21.4184 4.59945 21.1743 4.59945H14.2972L14.5642 3.53337L22.2956 1.81549ZM11.9405 6.44069L11.25 9.20256H1.84124V6.44069H11.9405ZM1.84124 11.0438H10.7897L9.23383 17.2654C9.18104 17.5 9.22213 17.7459 9.34833 17.9506C9.47453 18.1553 9.67582 18.3025 9.90914 18.3607C10.1425 18.4189 10.3893 18.3835 10.5969 18.2621C10.8044 18.1407 10.9562 17.9428 11.0198 17.7109L12.6862 11.0456H20.2537V11.9663C20.2537 12.6988 19.9627 13.4012 19.4447 13.9192C18.9268 14.4371 18.2243 14.7281 17.4918 14.7281H15.6506C15.4064 14.7281 15.1722 14.8251 14.9996 14.9978C14.8269 15.1704 14.7299 15.4046 14.7299 15.6487V17.49C14.7299 18.4666 14.342 19.4033 13.6514 20.0939C12.9608 20.7845 12.0241 21.1725 11.0475 21.1725C10.0708 21.1725 9.13414 20.7845 8.44354 20.0939C7.75294 19.4033 7.36497 18.4666 7.36497 17.49V15.6487C7.36497 15.4046 7.26797 15.1704 7.09532 14.9978C6.92267 14.8251 6.68851 14.7281 6.44435 14.7281H4.6031C4.24026 14.7281 3.88096 14.6566 3.54576 14.5177C3.21056 14.3788 2.90601 14.1752 2.64952 13.9185C2.39304 13.6619 2.18964 13.3572 2.05095 13.0219C1.91226 12.6866 1.841 12.3273 1.84124 11.9644V11.0438ZM20.2537 9.20256H13.1465L13.8369 6.44069H20.2537V9.20256Z" fill="white"/>
</svg>
