<svg width="31" height="34" viewBox="0 0 31 34" fill="none" xmlns="http://www.w3.org/2000/svg">
<path d="M30.25 18.2222C30.25 26.3684 23.6462 32.9722 15.5 32.9722C7.3538 32.9722 0.75 26.3684 0.75 18.2222C0.75 10.076 7.3538 3.47217 15.5 3.47217C23.6462 3.47217 30.25 10.076 30.25 18.2222Z" stroke="white" stroke-width="1.5"/>
<circle cx="15.4999" cy="18.2222" r="12.4167" stroke="white"/>
<path d="M14.9694 19.9445C15.0347 19.9445 15.0984 19.9638 15.1527 20L15.5362 20.2556C16.0516 20.5992 16.3611 21.1776 16.3611 21.7971V25.9722C16.3611 26.4478 15.9756 26.8334 15.5 26.8334C15.0244 26.8334 14.6389 26.4478 14.6389 25.9722V20.2749C14.6389 20.0924 14.7869 19.9445 14.9694 19.9445Z" fill="white"/>
<path d="M14.6389 10.4722C14.6389 9.99662 15.0244 9.61108 15.5 9.61108C15.9756 9.61108 16.3611 9.99662 16.3611 10.4722V15.2083V16.1695C16.3611 16.352 16.2132 16.5 16.0306 16.5C15.9654 16.5 15.9016 16.4807 15.8473 16.4445L15.4639 16.1888C14.9485 15.8452 14.6389 15.2668 14.6389 14.6474V10.4722Z" fill="white"/>
<path d="M19.0748 19.0834C18.4553 19.0834 17.8769 18.7738 17.5333 18.2584L17.2777 17.875C17.2415 17.8207 17.2222 17.7569 17.2222 17.6916C17.2222 17.5091 17.3701 17.3612 17.5527 17.3612H23.2499C23.7255 17.3612 24.1111 17.7467 24.1111 18.2223C24.1111 18.6978 23.7255 19.0834 23.2499 19.0834H19.0748Z" fill="white"/>
<path d="M7.75003 19.0834C7.27445 19.0834 6.88892 18.6978 6.88892 18.2223C6.88892 17.7467 7.27445 17.3612 7.75003 17.3612H11.9252C12.5446 17.3612 13.1231 17.6707 13.4667 18.1861L13.7223 18.5696C13.7585 18.6238 13.7778 18.6876 13.7778 18.7529C13.7778 18.9354 13.6298 19.0834 13.4473 19.0834H7.75003Z" fill="white"/>
<path d="M9.77518 12.8452C9.72157 12.7677 9.71893 12.7134 9.72368 12.6773C9.72969 12.6315 9.75458 12.5754 9.80395 12.5261C9.85332 12.4767 9.9094 12.4518 9.95519 12.4458C9.99132 12.441 10.0456 12.4437 10.123 12.4973L16.6505 17.0163C16.6745 17.0329 16.6953 17.0536 16.7122 17.0774L20.9657 23.0823C21.019 23.1575 21.0228 23.2114 21.0187 23.248C21.0135 23.2939 20.99 23.3497 20.9426 23.3994C20.8952 23.4491 20.8405 23.4752 20.7949 23.4825C20.7585 23.4884 20.7046 23.4871 20.6269 23.4374L14.3511 19.4209C14.3232 19.403 14.2992 19.3798 14.2803 19.3526L9.77518 12.8452Z" stroke="white" stroke-width="1.5"/>
<path d="M14.6389 1.86111C14.6389 1.38553 15.0244 1 15.5 1V1C15.9756 1 16.3611 1.38553 16.3611 1.86111V2.3953C16.3611 2.87086 15.9756 3.25638 15.5001 3.25638V3.25638V3.25638C15.0245 3.25638 14.6389 2.87084 14.6389 2.39525V1.86111Z" stroke="white"/>
</svg>
