<svg width="20" height="33" viewBox="0 0 20 33" fill="none" xmlns="http://www.w3.org/2000/svg">
<path d="M6.5 2H9L9.5 12C9.5 12 9.08579 12.9142 8.5 13.5C7.91421 14.0858 6.5 15 6.5 15V29.5C6.5 29.5 6.5 31.5 5 31.5C3.5 31.5 3.5 29.5 3.5 29.5V15C3.5 15 2.48816 14.0858 2 13.5C1.51184 12.9142 1 12 1 12L1.5 2H4M6.5 2V8.5M6.5 2H4M4 2V8.5M13 2V29.5V31.5C13 31.5 13.7876 31.5275 14.5 30.5C15.7288 28.7276 15.6456 26.1518 15.5 24C15.3369 21.5903 15 18 15 18C15 18 16.3925 16.2703 17 15C17.5328 13.8859 17.7677 13.2129 18 12C18.3305 10.274 18.4758 9.19172 18 7.5C17.5738 5.98454 16.9763 4.97631 16 4C15.0237 3.02369 13 2 13 2Z" stroke="white" stroke-width="1.5"/>
</svg>
