<svg width="24" height="21" viewBox="0 0 24 21" fill="none" xmlns="http://www.w3.org/2000/svg">
<path d="M9.17564e-08 6.24105C-0.000142112 5.41179 0.165008 4.59082 0.485798 3.82612C0.806587 3.06142 1.27658 2.36833 1.86831 1.78736C2.46004 1.20638 3.16164 0.749185 3.9321 0.442479C4.70256 0.135773 5.52642 -0.0142866 6.35554 0.00107013C7.33656 -0.00413968 8.30749 0.199212 9.20397 0.597648C10.1004 0.996084 10.902 1.5805 11.5555 2.31218C12.209 1.5805 13.0106 0.996084 13.9071 0.597648C14.8036 0.199212 15.7745 -0.00413968 16.7555 0.00107013C17.5846 -0.0142866 18.4085 0.135773 19.179 0.442479C19.9494 0.749185 20.651 1.20638 21.2427 1.78736C21.8345 2.36833 22.3045 3.06142 22.6253 3.82612C22.946 4.59082 23.1112 5.41179 23.1111 6.24105C23.1111 12.4302 15.7398 17.1033 11.5555 20.801C7.38051 17.0721 9.17564e-08 12.4348 9.17564e-08 6.24105Z" fill="#f55a00"/>
</svg>
