<svg width="24" height="21" viewBox="0 0 24 21" fill="none" xmlns="http://www.w3.org/2000/svg">
<path d="M11.6608 20.9907C10.9087 20.3237 10.0586 19.6299 9.15954 18.8917H9.14788C5.98198 16.303 2.39397 13.3739 0.80927 9.86398C0.2892 8.74688 0.0128402 7.53183 1.33837e-05 6.29812C-0.0017144 5.46085 0.163861 4.63169 0.487016 3.8593C0.810172 3.08691 1.28439 2.38687 1.88184 1.80029C2.47928 1.21371 3.1879 0.752415 3.96608 0.443485C4.74427 0.134555 5.57634 -0.0157795 6.41343 0.00130936C7.79013 0.00348386 9.13719 0.401368 10.2941 1.14756C10.8025 1.47753 11.2625 1.87666 11.6608 2.33346C12.0619 1.87869 12.5213 1.47989 13.0286 1.14756C14.185 0.401221 15.5317 0.00331332 16.9081 0.00130936C17.7452 -0.0157795 18.5773 0.134555 19.3555 0.443485C20.1336 0.752415 20.8423 1.21371 21.4397 1.80029C22.0371 2.38687 22.5114 3.08691 22.8345 3.8593C23.1577 4.63169 23.3233 5.46085 23.3215 6.29812C23.3096 7.53278 23.0337 8.7506 22.5123 9.86981C20.9276 13.3797 17.3407 16.3077 14.1748 18.8917L14.1632 18.9011C13.263 19.6345 12.4141 20.3283 11.6619 21L11.6608 20.9907ZM6.41343 2.33346C5.32724 2.31987 4.27959 2.73557 3.49824 3.49021C3.12563 3.85621 2.83039 4.29339 2.63007 4.77575C2.42975 5.25812 2.32844 5.77583 2.33216 6.29812C2.34499 7.196 2.54905 8.08221 2.9292 8.89614C3.67727 10.4105 4.68662 11.7811 5.91085 12.9447C7.06643 14.1108 8.39576 15.2396 9.54551 16.1888C9.86385 16.4511 10.188 16.7158 10.5122 16.9805L10.7162 17.1473C11.0276 17.4015 11.3494 17.665 11.6608 17.9239L11.6759 17.9099L11.6829 17.9041H11.6899L11.7004 17.8959H11.7121L11.7331 17.8784L11.7809 17.8399L11.789 17.8329L11.8019 17.8236H11.8089L11.8194 17.8143L12.5936 17.1788L12.7965 17.012C13.1242 16.745 13.4484 16.4803 13.7667 16.2179C14.9165 15.2687 16.2469 14.1411 17.4025 12.9692C18.627 11.8062 19.6364 10.436 20.3842 8.92179C20.7713 8.10087 20.9789 7.20532 20.9905 6.29812C20.9928 5.77732 20.8907 5.26135 20.6902 4.78068C20.4897 4.30001 20.1949 3.86439 19.8233 3.49954C19.0434 2.74149 17.9956 2.32236 16.9081 2.33346C16.252 2.32789 15.6021 2.46122 15.0012 2.72469C14.4003 2.98817 13.862 3.37582 13.4215 3.86219L11.6608 5.89116L9.89999 3.86219C9.45958 3.37582 8.92123 2.98817 8.32032 2.72469C7.7194 2.46122 7.06954 2.32789 6.41343 2.33346Z" fill="#f55a00"/>
</svg>
