<svg width="20" height="20" viewBox="0 0 20 20" fill="none" xmlns="http://www.w3.org/2000/svg">
<path d="M16.25 8.75C15.5 8.75 15 8.75 15 8.75V6.25C15 4.92392 14.4732 3.65215 13.5355 2.71447C12.5979 1.77678 11.3261 1.25 10 1.25C8.67392 1.25 7.40215 1.77678 6.46447 2.71447C5.52678 3.65215 5 4.92392 5 6.25V8.75C5 8.75 4.5 8.75 3.75 8.75C3 8.75 2.5 9.5 2.5 10C2.5 10.5 2.5 17 2.5 17.5C2.5 18 3.10399 18.75 3.75 18.75C4.39601 18.75 15.5 18.75 16.25 18.75C17 18.75 17.5 18 17.5 17.5C17.5 17 17.5 10.5 17.5 10C17.5 9.5 17 8.75 16.25 8.75ZM6.25 6.25C6.25 5.25544 6.64509 4.30161 7.34835 3.59835C8.05161 2.89509 9.00544 2.5 10 2.5C10.9946 2.5 11.9484 2.89509 12.6517 3.59835C13.3549 4.30161 13.75 5.25544 13.75 6.25V8.75H6.25V6.25ZM16.25 17.5H3.75V10H16.25V17.5Z" fill="white" fill-opacity="0.7"/>
</svg>
