<svg width="26" height="26" viewBox="0 0 26 26" fill="none" xmlns="http://www.w3.org/2000/svg">
<g clip-path="url(#clip0)">
<path d="M26.2516 21.8525L19.6576 15.2586C20.6809 13.9357 21.2344 12.3184 21.2344 10.6172C21.2344 8.58086 20.4396 6.67148 19.0025 5.23184C17.5654 3.79219 15.651 3 13.6172 3C11.5834 3 9.66895 3.79473 8.23184 5.23184C6.79219 6.66895 6 8.58086 6 10.6172C6 12.651 6.79473 14.5654 8.23184 16.0025C9.66895 17.4422 11.5809 18.2344 13.6172 18.2344C15.3184 18.2344 16.9332 17.6809 18.2561 16.6602L24.85 23.2516C24.8693 23.2709 24.8923 23.2863 24.9176 23.2967C24.9428 23.3072 24.9699 23.3126 24.9973 23.3126C25.0246 23.3126 25.0517 23.3072 25.077 23.2967C25.1022 23.2863 25.1252 23.2709 25.1445 23.2516L26.2516 22.1471C26.2709 22.1277 26.2863 22.1048 26.2967 22.0795C26.3072 22.0542 26.3126 22.0272 26.3126 21.9998C26.3126 21.9725 26.3072 21.9454 26.2967 21.9201C26.2863 21.8948 26.2709 21.8719 26.2516 21.8525ZM17.6391 14.6391C16.5625 15.7131 15.1355 16.3047 13.6172 16.3047C12.0988 16.3047 10.6719 15.7131 9.59531 14.6391C8.52129 13.5625 7.92969 12.1355 7.92969 10.6172C7.92969 9.09883 8.52129 7.66934 9.59531 6.59531C10.6719 5.52129 12.0988 4.92969 13.6172 4.92969C15.1355 4.92969 16.565 5.51875 17.6391 6.59531C18.7131 7.67188 19.3047 9.09883 19.3047 10.6172C19.3047 12.1355 18.7131 13.565 17.6391 14.6391Z" fill="white"/>
</g>
<defs>
<clipPath id="clip0">
<rect width="26" height="26" fill="white"/>
</clipPath>
</defs>
</svg>
