<svg width="26" height="26" viewBox="0 0 26 26" fill="none" xmlns="http://www.w3.org/2000/svg">
<path d="M18.6876 16.25C18.0794 16.2531 17.4797 16.3927 16.9327 16.6585C16.3857 16.9242 15.9053 17.3094 15.527 17.7857L9.58762 14.0725C9.80408 13.3739 9.80408 12.6262 9.58762 11.9275L15.527 8.21442C16.1298 8.96088 16.9774 9.46987 17.9196 9.65125C18.8618 9.83263 19.8377 9.67467 20.6746 9.20536C21.5115 8.73606 22.1552 7.98569 22.4918 7.0872C22.8284 6.1887 22.8362 5.20006 22.5136 4.29641C22.1911 3.39276 21.5592 2.63243 20.7297 2.15011C19.9003 1.66778 18.9269 1.4946 17.982 1.66123C17.0371 1.82786 16.1817 2.32356 15.5673 3.0605C14.9528 3.79745 14.6191 4.72808 14.6251 5.68754C14.629 6.05088 14.6837 6.41188 14.7876 6.76004L8.84824 10.4732C8.32389 9.81308 7.60718 9.33246 6.79745 9.09793C5.98773 8.8634 5.12509 8.88657 4.32913 9.16424C3.53316 9.44191 2.84329 9.96032 2.35514 10.6476C1.86699 11.3349 1.60474 12.157 1.60474 13C1.60474 13.8431 1.86699 14.6652 2.35514 15.3525C2.84329 16.0398 3.53316 16.5582 4.32913 16.8358C5.12509 17.1135 5.98773 17.1367 6.79745 16.9022C7.60718 16.6676 8.32389 16.187 8.84824 15.5269L14.7876 19.24C14.6837 19.5882 14.629 19.9492 14.6251 20.3125C14.6251 21.116 14.8634 21.9015 15.3098 22.5695C15.7562 23.2376 16.3906 23.7583 17.133 24.0658C17.8753 24.3733 18.6921 24.4537 19.4802 24.297C20.2682 24.1402 20.9921 23.7533 21.5602 23.1852C22.1284 22.617 22.5153 21.8931 22.6721 21.1051C22.8288 20.3171 22.7484 19.5002 22.4409 18.7579C22.1334 18.0156 21.6127 17.3811 20.9446 16.9347C20.2765 16.4883 19.4911 16.25 18.6876 16.25ZM18.6876 3.25004C19.1697 3.25004 19.641 3.393 20.0418 3.66084C20.4427 3.92867 20.7551 4.30936 20.9396 4.75475C21.1241 5.20015 21.1723 5.69025 21.0783 6.16308C20.9842 6.63591 20.7521 7.07023 20.4112 7.41112C20.0703 7.75201 19.636 7.98416 19.1632 8.07821C18.6903 8.17226 18.2002 8.12399 17.7548 7.9395C17.3094 7.75501 16.9287 7.44259 16.6609 7.04175C16.3931 6.6409 16.2501 6.16964 16.2501 5.68754C16.2501 5.04108 16.5069 4.42109 16.964 3.96397C17.4212 3.50685 18.0412 3.25004 18.6876 3.25004ZM5.68762 15.4375C5.20553 15.4375 4.73426 15.2946 4.33342 15.0268C3.93257 14.7589 3.62015 14.3782 3.43566 13.9328C3.25117 13.4874 3.2029 12.9973 3.29695 12.5245C3.39101 12.0517 3.62316 11.6174 3.96405 11.2765C4.30494 10.9356 4.73926 10.7034 5.21209 10.6094C5.68492 10.5153 6.17501 10.5636 6.62041 10.7481C7.0658 10.9326 7.44649 11.245 7.71433 11.6458C7.98216 12.0467 8.12512 12.518 8.12512 13C8.12512 13.6465 7.86831 14.2665 7.41119 14.7236C6.95407 15.1807 6.33408 15.4375 5.68762 15.4375ZM18.6876 22.75C18.2055 22.75 17.7343 22.6071 17.3334 22.3393C16.9326 22.0714 16.6202 21.6907 16.4357 21.2453C16.2512 20.7999 16.2029 20.3098 16.297 19.837C16.391 19.3642 16.6232 18.9299 16.964 18.589C17.3049 18.2481 17.7393 18.0159 18.2121 17.9219C18.6849 17.8278 19.175 17.8761 19.6204 18.0606C20.0658 18.2451 20.4465 18.5575 20.7143 18.9583C20.9822 19.3592 21.1251 19.8305 21.1251 20.3125C21.1251 20.959 20.8683 21.579 20.4112 22.0361C19.9541 22.4932 19.3341 22.75 18.6876 22.75Z" fill="white"/>
</svg>
